<?xml version="1.0" encoding="UTF-8"?>
<svg width="1024px" height="1024px" viewBox="0 0 1024 1024" version="1.1" xmlns="http://www.w3.org/2000/svg" xmlns:xlink="http://www.w3.org/1999/xlink">
    <!-- Generator: Sketch 63.1 (92452) - https://sketch.com -->
    <title>Icon</title>
    <desc>Created with Sketch.</desc>
    <g id="Icon" stroke="none" stroke-width="1" fill="none" fill-rule="evenodd">
        <g>
            <g>
                <rect id="Padding" x="0" y="0" width="1024" height="1024"></rect>
                <path d="M210.910421,468.546125 L211.09257,468.48096 C211.123598,468.469317 211.154614,468.457484 211.185618,468.445464 L211.092579,468.480061 C211.246581,468.422298 211.400293,468.35984 211.553744,468.293043 C211.561444,468.290542 211.569754,468.286912 211.578063,468.28327 L211.553744,468.293043 C211.612223,468.267587 211.670663,468.241502 211.729068,468.214806 L211.578063,468.28327 C211.6636,468.245771 211.749055,468.206933 211.834434,468.166817 L211.729068,468.214806 C213.540148,467.386993 215.316673,465.972271 217.11101,464.558591 C217.586647,464.18436 218.063457,463.810129 218.542427,463.446774 C218.572676,463.424726 218.602665,463.402036 218.632664,463.379391 C218.675432,463.346169 218.718685,463.313609 218.761957,463.281151 C218.820544,463.238192 218.878489,463.194955 218.936469,463.151919 C220.154618,462.246355 221.389069,461.430527 222.655285,460.881699 C222.691587,460.866904 222.727568,460.85153 222.763576,460.836376 C222.938515,460.761843 223.114499,460.693259 223.291142,460.630349 C223.301801,460.627394 223.312471,460.623613 223.323143,460.619854 C223.611664,460.517433 223.901841,460.431075 224.193964,460.361948 C224.210393,460.358776 224.227081,460.354883 224.243776,460.351045 C224.546275,460.280844 224.850722,460.229945 225.157468,460.199864 C225.178547,460.198433 225.199532,460.196472 225.220528,460.19461 C225.301721,460.186776 225.383311,460.18103 225.465068,460.176801 C225.492619,460.176003 225.519578,460.174776 225.546556,460.173715 C225.600971,460.170949 225.65603,460.169474 225.711165,460.168702 L225.801508,460.16869 L225.801508,460.16869 L225.842186,460.168198 C225.918799,460.168682 225.995561,460.170538 226.072476,460.173799 L225.801508,460.16869 C225.905384,460.16869 226.00926,460.171141 226.113237,460.176141 C226.188608,460.179341 226.263937,460.184361 226.339414,460.19076 C226.376334,460.194161 226.413307,460.197593 226.450306,460.20136 C226.507651,460.207024 226.565277,460.21373 226.622991,460.221256 C226.656371,460.225696 226.689357,460.230248 226.722374,460.235073 C226.880156,460.258128 227.039107,460.287524 227.198751,460.32342 L227.198751,460.32342 C227.323346,467.405615 221.734373,471.631944 219.691906,478.077538 C216.763924,487.33921 216.403489,495.234841 212.274056,504.704293 C203.850548,524.02339 198.11473,543.430904 194.497027,564.341506 C193.259977,571.47233 191.884983,580.344968 193.17988,587.661469 C194.350183,594.297158 198.768854,599.743641 201.189556,606.122921 C204.78501,615.610057 212.278506,628.79302 211.677781,638.823919 C211.548736,640.976871 209.261529,642.236812 209.510718,645.15015 C209.733209,647.776133 210.881263,648.333159 211.366293,650.309277 C212.500997,654.946745 214.583513,655.459563 210.182641,660.623111 C216.069753,665.42415 214.240877,676.029759 216.86627,682.35599 C219.469415,688.629171 224.684603,697.170245 229.129973,703.023445 C235.017085,710.777609 238.447896,719.243529 242.911065,728.049854 C244.336376,730.853351 245.591067,734.07497 246.825634,737.471315 L247.133943,738.3239 L247.133943,738.3239 C245.581547,736.411096 244.0482,734.482397 242.534193,732.538087 C241.288255,730.938123 240.05495,729.326901 238.834917,727.705255 C238.16904,726.820072 237.507409,725.932286 236.849754,725.041423 C236.604877,724.709829 236.360577,724.377727 236.116829,724.045199 C235.885695,723.729759 235.65486,723.413786 235.424524,723.09743 C235.137596,722.703471 234.852008,722.30958 234.567194,721.915101 C234.406014,721.691735 234.245131,721.468374 234.084495,721.244825 C233.725477,720.745326 233.367311,720.24422 233.010391,719.742178 C232.879492,719.557926 232.749077,719.374125 232.618829,719.190198 C232.363203,718.829354 232.108237,718.467921 231.853916,718.106009 C231.653633,717.820864 231.453782,717.535601 231.254333,717.250041 C230.949203,716.813303 230.645259,716.376101 230.342254,715.938207 C230.20697,715.742571 230.071953,715.547042 229.937124,715.351377 C229.668844,714.962173 229.401124,714.572034 229.134148,714.181354 C228.939549,713.896461 228.745609,713.611794 228.552065,713.32684 C228.348011,713.026537 228.144161,712.725444 227.940752,712.424032 C227.677669,712.034079 227.415438,711.643882 227.153945,711.253155 C227.00048,711.023959 226.847309,710.794523 226.694392,710.564906 C226.418929,710.151166 226.144275,709.736918 225.870449,709.322082 C225.659645,709.002824 225.449341,708.683126 225.23953,708.36308 C224.98767,707.978795 224.736631,707.594279 224.486302,707.209264 C224.344646,706.991483 224.203147,706.77334 224.061876,706.555037 C223.78936,706.13384 223.517781,705.712273 223.247053,705.290115 C222.977326,704.869593 222.708512,704.448513 222.440546,704.02685 C222.282652,703.778327 222.125165,703.529849 221.967973,703.281168 C221.753229,702.941499 221.539034,702.601392 221.32539,702.26091 C221.068458,701.851391 220.81229,701.441332 220.556921,701.030732 C220.364439,700.721281 220.172921,700.412309 219.981855,700.103033 C219.80078,699.8099 219.620035,699.516401 219.439697,699.222629 C219.228766,698.879038 219.018498,698.535226 218.808789,698.191042 C218.57944,697.814621 218.350746,697.437742 218.12272,697.06042 C217.944353,696.765263 217.766394,696.469836 217.588845,696.174139 C217.363631,695.799076 217.139276,695.423897 216.91558,695.048284 C216.67879,694.650652 216.44247,694.252105 216.206893,693.853074 C216.02927,693.552256 215.852291,693.251497 215.675735,692.950463 C215.46911,692.598098 215.263222,692.245687 215.057912,691.892902 C214.853959,691.542523 214.650777,691.192052 214.448167,690.841213 C214.276572,690.543991 214.105148,690.246176 213.934136,689.948098 C213.716168,689.56828 213.499196,689.18851 213.282893,688.808315 C213.105658,688.496668 212.928663,688.184483 212.752118,687.872013 C212.527973,687.475437 212.304628,687.078399 212.082011,686.680903 C211.863496,686.29057 211.645731,685.900039 211.428668,685.509068 C211.269929,685.22333 211.111601,684.937245 210.953649,684.650927 C210.752943,684.286913 210.553009,683.92301 210.353683,683.558732 C210.142411,683.172838 209.931675,682.786045 209.721625,682.398831 C209.487506,681.967006 209.254462,681.535306 209.022271,681.103086 C208.890936,680.858867 208.760398,680.615206 208.63013,680.37138 C208.46365,680.059502 208.297261,679.746961 208.131317,679.434152 C207.890258,678.980043 207.65046,678.525689 207.411601,678.070772 C207.276779,677.813679 207.142134,677.556485 207.007789,677.299113 C206.7845,676.871682 206.562306,676.443939 206.340943,676.015704 C206.186367,675.716307 206.032071,675.416786 205.878181,675.117025 C205.644046,674.661342 205.411136,674.205287 205.179167,673.748681 C205.019064,673.433122 204.859171,673.117239 204.699729,672.801094 C204.52104,672.447218 204.343413,672.093578 204.166349,671.739611 C203.978714,671.36405 203.791656,670.988463 203.605233,670.612511 C203.446056,670.291992 203.287319,669.970682 203.129046,669.649107 C202.958434,669.301951 202.788568,668.955413 202.619241,668.608567 C202.407309,668.17499 202.196161,667.740282 201.985859,667.305095 C201.866357,667.057241 201.747069,666.809667 201.628056,666.56194 C201.388117,666.063093 201.149462,665.563401 200.911921,665.063084 C200.776424,664.777076 200.64131,664.491522 200.50656,664.205766 C200.324223,663.819738 200.142725,663.433078 199.961892,663.046051 C199.813005,662.726722 199.66457,662.40781 199.516587,662.08865 C199.313193,661.650685 199.110695,661.211652 198.909052,660.772151 C198.781829,660.494127 198.654748,660.216205 198.52801,659.938096 C198.308036,659.456155 198.089473,658.97375 197.87194,658.490788 C197.75557,658.231638 197.639166,657.972378 197.523059,657.712957 C197.298322,657.21164 197.075175,656.710001 196.853138,656.207769 C196.783336,656.04903 196.713336,655.890383 196.643448,655.731676 C196.384539,655.14461 196.127456,654.556576 195.871893,653.967738 C195.795241,653.790211 195.718314,653.612568 195.641525,653.434852 C195.406244,652.891266 195.172756,652.347227 194.940566,651.802509 C194.831623,651.54595 194.722584,651.289313 194.613833,651.032527 C194.44245,650.628852 194.27224,650.2249 194.102743,649.820579 C193.935059,649.419546 193.767682,649.018234 193.601007,648.61656 C193.436223,648.220516 193.272466,647.823882 193.109396,647.426898 C193.000323,647.160263 192.891286,646.893904 192.782557,646.627387 C192.564204,646.093294 192.347469,645.558369 192.131979,645.022816 C192.022521,644.749603 191.913233,644.477021 191.804267,644.204276 C191.624726,643.756086 191.44629,643.306839 191.268729,642.857156 C191.162984,642.588105 191.05743,642.319832 190.952187,642.051404 C190.758679,641.559121 190.566532,641.065848 190.375439,640.572056 C190.275431,640.312319 190.175293,640.052657 190.075446,639.792853 C189.881244,639.288875 189.688584,638.784184 189.497024,638.278958 C189.396152,638.01153 189.295275,637.744511 189.194706,637.477343 C188.99995,636.961373 188.806823,636.444725 188.614846,635.927525 C188.532796,635.70502 188.450521,635.482686 188.368458,635.26025 C188.199526,634.80383 188.031993,634.346872 187.865357,633.889487 C187.732858,633.524279 187.600433,633.158948 187.468581,632.793347 C187.308271,632.350395 187.149406,631.907171 186.991384,631.463552 C186.895137,631.191759 186.798608,630.91973 186.702396,630.647552 C186.520387,630.13429 186.340149,629.620705 186.161039,629.106596 C186.062034,628.820742 185.962914,628.535065 185.864142,628.249227 C185.694355,627.759577 185.52615,627.269378 185.358971,626.778708 C185.271735,626.520923 185.184278,626.263273 185.097103,626.005493 C184.929093,625.51045 184.762724,625.01493 184.597401,624.518936 C184.508672,624.250919 184.419675,623.982858 184.330984,623.714658 C184.143464,623.14945 183.957863,622.583485 183.773625,622.016912 C183.702507,621.79631 183.631203,621.576308 183.560105,621.356215 C183.381989,620.806761 183.205688,620.25647 183.030673,619.705612 C182.966595,619.50196 182.90208,619.298267 182.837741,619.094498 C182.660873,618.536327 182.486009,617.977761 182.312466,617.418619 C182.230193,617.1515 182.147653,616.884457 182.065415,616.617284 C181.925217,616.16388 181.786521,615.710093 181.648696,615.255931 C181.555424,614.946472 181.462079,614.637377 181.369138,614.32811 C181.226229,613.854713 181.084693,613.380192 180.944109,612.905267 C180.856917,612.608533 180.76969,612.312454 180.682832,612.016218 C180.502279,611.402639 180.323742,610.787639 180.1468,610.171972 C180.094096,609.986331 180.041,609.801018 179.988047,609.615645 C179.838229,609.093447 179.690242,608.570892 179.543404,608.047863 C179.469924,607.783805 179.396113,607.519731 179.322595,607.255537 C179.181277,606.750041 179.04169,606.244123 178.903177,605.737766 C178.826591,605.455401 178.749618,605.172655 178.672981,604.889772 C178.501929,604.260793 178.333319,603.631633 178.166368,603.001804 C178.133035,602.873588 178.099167,602.74553 178.065366,602.617444 C177.903467,602.006404 177.743734,601.394544 177.585569,600.78206 C177.53281,600.575228 177.479781,600.369119 177.426929,600.162939 C177.264415,599.531496 177.104015,598.898585 176.94529,598.265017 C176.903871,598.097096 176.862156,597.930076 176.820558,597.76301 C176.674404,597.178636 176.53016,596.593039 176.387347,596.006886 C176.330558,595.771163 176.273383,595.535457 176.216439,595.299662 C176.048073,594.605145 175.882426,593.910136 175.718793,593.214357 C175.704926,593.152686 175.69052,593.091358 175.676129,593.030023 C175.338722,591.594661 175.010483,590.155859 174.690871,588.713843 C174.645653,588.507033 174.600023,588.300299 174.554571,588.093499 C174.420646,587.486966 174.2889,586.880029 174.158683,586.272529 C174.117037,586.075404 174.074895,585.877993 174.032914,585.680524 C173.919939,585.151934 173.808824,584.623389 173.698867,584.094423 C173.640742,583.811943 173.582241,583.528808 173.524071,583.245552 C173.199536,581.668053 172.886017,580.087498 172.582859,578.503295 C172.581825,578.494967 172.58036,578.487311 172.578895,578.479654 L172.582859,578.503295 C172.449867,577.808326 172.31887,577.112655 172.189872,576.416288 C172.160521,576.254917 172.130738,576.093532 172.101063,575.93211 C171.972366,575.23494 171.846261,574.53735 171.722165,573.83907 C171.704014,573.734011 171.685275,573.628299 171.666581,573.522572 C171.546272,572.844986 171.428502,572.167519 171.312625,571.489411 C171.286279,571.33233 171.259484,571.174908 171.232792,571.017451 C171.167323,570.634145 171.10301,570.250977 171.0393,569.867606 L171.373815,571.90094 C197.227231,722.422903 316.204007,841.395682 467.317148,868.229378 L473.059776,869.201521 L473.046672,869.200381 C316.503642,843.954199 193.268618,720.062822 170.075464,563.811303 L170.085736,563.80821 C170.079334,563.765167 170.07294,563.722122 170.066554,563.679075 L170.04765,563.55426 C170.00206,563.246207 169.95686,562.938028 169.91205,562.629723 L169.902461,562.632396 C169.784715,561.820706 169.669668,561.008149 169.557329,560.194734 L169.362459,558.696282 C169.241769,557.796369 169.124399,556.895413 169.010359,555.993425 L168.991585,555.909397 C168.928329,555.407128 168.866104,554.904541 168.804912,554.401638 L168.63736,552.938659 C168.514467,551.895268 168.396028,550.850523 168.282063,549.804442 C168.18223,548.948159 168.091901,548.088868 168.00459,547.228691 C167.9888,547.011168 167.967081,546.795737 167.945553,546.580251 C167.843008,545.55508 167.744865,544.5283 167.651038,543.50028 C167.622319,543.244974 167.599226,542.988436 167.576401,542.731821 L167.496466,541.760423 C167.405743,540.710565 167.319518,539.659426 167.237812,538.607027 C167.213415,538.293173 167.189426,537.978983 167.165839,537.664681 C167.141253,537.395714 167.121375,537.126185 167.101792,536.856575 L167.068675,536.336296 C167.061232,536.231963 167.053834,536.127617 167.04648,536.023259 C167.00411,535.423348 166.963299,534.823185 166.923958,534.222623 C166.909401,533.998423 166.894954,533.77462 166.880711,533.550762 C166.840774,532.925528 166.802544,532.299393 166.765913,531.672831 C166.736509,531.228849 166.71137,530.783807 166.687037,530.338551 C166.672263,530.008162 166.654653,529.678494 166.637485,529.34871 C166.623311,529.071564 166.609221,528.79469 166.595445,528.517734 C166.54533,527.516214 166.499552,526.513188 166.457879,525.509105 C166.438892,525.116652 166.423235,524.723098 166.408209,524.329384 L166.410795,524.328599 L166.381673,523.534404 C166.379655,523.478446 166.37765,523.422484 166.375658,523.36652 C166.356147,522.830349 166.338222,522.294113 166.321469,521.757583 C166.312876,521.467581 166.30417,521.177429 166.295807,520.88719 C166.284104,520.498093 166.273498,520.108883 166.26351,519.71952 C166.255859,519.506476 166.250572,519.292434 166.245471,519.078347 L166.238058,518.644519 C166.235577,518.535189 166.233146,518.425847 166.230763,518.316493 C166.197035,516.796476 166.173272,515.274278 166.158969,513.749822 L166.151676,513.112742 L166.151676,512.591082 L166.151676,512.591082 C166.147226,512.564557 166.147226,512.52477 166.147226,512.502666 L166.147226,511.790909 C166.147226,511.755543 166.147226,511.715755 166.142776,511.680388 L166.142776,508.996935 L166.142776,508.996935 C166.147226,508.873151 166.147226,508.740526 166.147226,508.616742 L166.147226,508.599058 L166.147466,508.439888 C166.150333,507.872426 166.154513,507.305276 166.160004,506.73844 L166.147226,508.599058 C166.150783,507.829382 166.156756,507.060278 166.165138,506.291752 C166.178867,504.983789 166.200103,503.677766 166.228278,502.373454 C166.231518,502.248625 166.234297,502.122969 166.23714,501.99733 C166.24681,501.546003 166.257834,501.095688 166.269685,500.645579 C166.277601,500.365672 166.285304,500.085365 166.293327,499.805138 C166.306589,499.322734 166.321347,498.840645 166.337052,498.358796 C166.343571,498.175684 166.349684,497.992394 166.355933,497.809139 C166.424196,495.791142 166.509612,493.777609 166.611501,491.768418 C166.61839,491.643654 166.624794,491.518647 166.631262,491.393656 C166.661792,490.792781 166.694346,490.192511 166.728369,489.592633 C166.73611,489.466119 166.743381,489.339084 166.750719,489.212067 C166.780376,488.688892 166.811705,488.166185 166.844149,487.64378 C166.856347,487.456513 166.868128,487.269166 166.880053,487.081859 C166.958124,485.846541 167.043001,484.612819 167.134078,483.380818 C167.14719,483.211195 167.15988,483.041174 167.172687,482.871186 C167.217828,482.264433 167.265024,481.658379 167.313719,481.052747 C167.321025,480.969036 167.327813,480.88498 167.33463,480.800931 L167.313719,481.052747 C167.361574,480.457561 167.410876,479.862782 167.461622,479.268413 C167.478495,479.077555 167.494985,478.886201 167.511626,478.69489 C167.543988,478.316184 167.577473,477.938101 167.611542,477.560186 C167.644505,477.200962 167.677438,476.841661 167.710899,476.482512 C167.749112,476.066125 167.788597,475.650114 167.82879,475.234309 C167.851662,475.003692 167.874241,474.772427 167.897039,474.541227 C167.944868,474.050284 167.9942,473.560264 168.044512,473.070534 C168.07194,472.809229 168.099083,472.547836 168.126505,472.286526 C168.17171,471.850195 168.218302,471.413871 168.265672,470.977781 C168.292076,470.740078 168.318094,470.502754 168.344342,470.2655 C168.388788,469.858472 168.434569,469.451 168.48103,469.043734 C168.514181,468.758273 168.547071,468.472987 168.580295,468.187802 C168.632232,467.736964 168.685556,467.286637 168.73971,466.836565 C168.767032,466.614357 168.793996,466.392007 168.821163,466.169719 C168.969772,464.948917 169.125106,463.72976 169.286518,462.512511 C169.301595,462.403235 169.316144,462.293906 169.330741,462.184593 C169.401158,461.652878 169.473323,461.12152 169.546645,460.59053 C169.571561,460.41435 169.595992,460.238381 169.620551,460.062453 C169.705133,459.452324 169.79185,458.842555 169.880091,458.233276 C169.892591,458.151031 169.904648,458.067984 169.916733,457.984947 C169.979003,457.553063 170.04253,457.122069 170.10682,456.691323 C170.165852,456.299745 170.22502,455.907754 170.284818,455.515968 C170.342897,455.1316 170.402151,454.747557 170.462011,454.363714 C170.496851,454.144076 170.531376,453.924032 170.5661,453.704054 C170.637681,453.246854 170.710695,452.790037 170.784566,452.333506 C170.821985,452.105884 170.859113,451.877822 170.896455,451.649832 C170.966866,451.216348 171.038562,450.783584 171.111027,450.351079 C171.15767,450.076207 171.204133,449.800864 171.250908,449.525628 C171.319255,449.119994 171.388807,448.714944 171.459035,448.310125 C171.50193,448.066242 171.544639,447.821549 171.587595,447.576941 C171.681634,447.038113 171.777329,446.5004 171.874215,445.963098 C171.88533,445.904715 171.89599,445.845682 171.906664,445.786655 C172.006317,445.23234 172.107727,444.678992 172.210399,444.126083 C172.243652,443.950162 172.276594,443.773499 172.309665,443.596881 C172.395597,443.134826 172.482857,442.673811 172.570993,442.213105 C172.627362,441.921512 172.683681,441.629091 172.740353,441.336794 C172.813142,440.958354 172.887005,440.580651 172.961456,440.203159 C173.012424,439.947697 173.063145,439.691994 173.114136,439.436388 C173.201941,438.99331 173.291117,438.550649 173.381104,438.108279 C173.438384,437.829553 173.495486,437.550543 173.552909,437.271649 C173.6193,436.946373 173.686683,436.621392 173.754504,436.296569 C173.834633,435.915583 173.914842,435.534522 173.995653,435.153682 C174.05965,434.849341 174.124658,434.54493 174.190049,434.24066 C174.264699,433.896011 174.339234,433.551667 174.414261,433.207504 C174.509952,432.765884 174.607033,432.324564 174.704921,431.883546 C174.729039,431.777497 174.752775,431.670786 174.776559,431.564093 C174.896009,431.025647 175.017148,430.488063 175.139486,429.950931 C175.18276,429.763471 175.225603,429.576063 175.268591,429.38871 C175.380349,428.899134 175.493742,428.409668 175.60813,427.920582 C175.636093,427.803479 175.663603,427.686122 175.691171,427.568786 C175.82229,427.008252 175.955211,426.448553 176.089435,425.889356 C176.129318,425.725585 176.168898,425.561198 176.20859,425.396854 C176.328705,424.897162 176.450355,424.398187 176.573042,423.899615 C176.629255,423.6735 176.685301,423.446692 176.741562,423.219968 C176.824645,422.882855 176.908707,422.546194 176.99324,422.209719 C177.071026,421.902371 177.148683,421.594989 177.226735,421.287762 C177.338963,420.843777 177.452596,420.400062 177.567051,419.956675 C177.607394,419.802586 177.647368,419.648154 177.687442,419.493762 C177.833371,418.929363 177.981156,418.365658 178.130267,417.802487 C178.151937,417.722776 178.173071,417.643066 178.194232,417.563366 L178.130267,417.802487 C178.274167,417.258999 178.419303,416.716009 178.565672,416.173519 C178.654959,415.844677 178.744235,415.515655 178.833964,415.186819 C178.912427,414.897217 178.991684,414.608191 179.07129,414.31931 C179.154283,414.020166 179.237291,413.720459 179.320676,413.420907 C179.44165,412.984319 179.563793,412.548729 179.686732,412.113469 C179.740967,411.923422 179.794916,411.733019 179.849017,411.54268 C179.973348,411.103308 180.099027,410.664334 180.225516,410.225699 C180.291627,409.998362 180.357448,409.770951 180.423488,409.543632 C180.561804,409.065623 180.701555,408.58829 180.842264,408.111364 C180.909371,407.885769 180.976227,407.659982 181.043297,407.434286 C181.153634,407.061148 181.265229,406.687854 181.377411,406.314811 C181.46661,406.020012 181.555569,405.725567 181.644893,405.43128 C181.75179,405.077299 181.859848,404.723266 181.968435,404.369461 C182.049872,404.105885 182.13104,403.8425 182.2125,403.579243 C182.328622,403.202218 182.445951,402.825249 182.563881,402.448543 C182.666737,402.121707 182.769538,401.794965 182.872791,401.468421 C182.977486,401.135615 183.083198,400.802985 183.189378,400.470561 C183.273623,400.208485 183.357678,399.946371 183.442023,399.684386 C183.55691,399.325876 183.672984,398.967277 183.789602,398.608922 C183.899845,398.271792 184.009864,397.935408 184.120363,397.599239 C184.230487,397.262602 184.341714,396.9259 184.453423,396.589415 C184.534671,396.34627 184.615763,396.102879 184.697106,395.859603 C184.835067,395.445427 184.974205,395.031815 185.11407,394.618535 C185.190314,394.39479 185.266401,394.170689 185.342703,393.946685 C185.471212,393.567886 185.600769,393.189611 185.730936,392.811617 C185.836518,392.506519 185.942048,392.201401 186.047975,391.896466 C186.165537,391.556552 186.284094,391.21691 186.403143,390.877496 C186.497568,390.609749 186.591818,390.34205 186.686375,390.074494 C186.841568,389.633919 186.998009,389.193991 187.155277,388.754451 C187.198098,388.636193 187.240792,388.517066 187.283547,388.397967 C187.455393,387.917864 187.628563,387.438694 187.802715,386.95999 C187.896531,386.703495 187.990029,386.447397 188.083808,386.191432 C188.232069,385.785396 188.381661,385.379366 188.53196,384.973675 C188.633087,384.702053 188.734203,384.430124 188.835638,384.158347 C188.98039,383.769181 189.126365,383.380128 189.27299,382.991391 C189.322029,382.86268 189.370686,382.733902 189.419413,382.60516 L189.27299,382.991391 C189.498084,382.394612 189.724711,381.798576 189.952866,381.203287 C190.060363,380.924079 190.16787,380.644617 190.275715,380.365321 C190.398664,380.045656 190.52248,379.726354 190.646737,379.40727 C190.758581,379.121288 190.870537,378.834872 190.982848,378.548633 C191.100459,378.247669 191.218726,377.947439 191.337382,377.647404 C191.482125,377.282602 191.62723,376.917431 191.772913,376.552549 C191.899059,376.235422 192.025986,375.918827 192.153347,375.602451 C192.237775,375.393884 192.322038,375.185129 192.40649,374.97647 C192.582413,374.540663 192.759574,374.105401 192.937556,373.670557 C193.008489,373.498378 193.079385,373.325546 193.150411,373.152781 C193.593772,372.073236 194.042434,370.996812 194.496128,369.923 C194.535433,369.831029 194.574245,369.739272 194.613095,369.647533 C195.084821,368.532566 195.56256,367.420098 196.045695,366.310485 C196.126996,366.124748 196.208229,365.938607 196.289615,365.752546 C196.501905,365.26624 196.715468,364.780921 196.930063,364.296154 C196.994569,364.151388 197.058941,364.006229 197.123406,363.861119 L196.930063,364.296154 C197.176763,363.738864 197.424827,363.182303 197.674252,362.626477 C197.783723,362.383448 197.892999,362.14065 198.002534,361.897992 C198.188805,361.484433 198.376409,361.070914 198.564765,360.657806 C198.610415,360.558571 198.655648,360.459483 198.700924,360.360418 L198.564765,360.657806 C198.834777,360.065608 199.106337,359.474255 199.379439,358.88375 C199.467923,358.693282 199.556387,358.502439 199.645012,358.311685 C200.38789,356.711911 201.142307,355.11877 201.907944,353.531979 C202.015609,353.309596 202.123252,353.087085 202.231114,352.8647 C202.712977,351.870491 203.199552,350.878903 203.690508,349.889842 C203.86326,349.54251 204.036087,349.195735 204.209452,348.849271 C204.626345,348.015463 205.04692,347.183019 205.470601,346.3524 C205.610895,346.077978 205.751537,345.803117 205.892518,345.528456 C206.368742,344.600075 206.849043,343.674221 207.333205,342.75068 C207.448742,342.53085 207.56444,342.310704 207.680356,342.090689 C207.885689,341.700417 208.091784,341.310969 208.298566,340.921937 C208.402118,340.727641 208.505747,340.533102 208.609547,340.338668 C208.821963,339.940269 209.035299,339.54245 209.249354,339.145071 C209.367609,338.926029 209.485826,338.707101 209.604262,338.488307 C210.427043,336.96787 211.260778,335.453609 212.104952,333.945903 C212.344364,333.518696 212.584473,333.091876 212.825418,332.665584 C213.581999,331.326662 214.346865,329.993255 215.119908,328.665129 C215.404135,328.177095 215.689212,327.689918 215.97539,327.203456 C216.047016,327.081442 216.119082,326.959107 216.191217,326.836816 C216.292866,326.664741 216.394434,326.492873 216.496139,326.321095 L216.191217,326.836816 C216.844201,325.729815 217.502885,324.626531 218.167226,323.527004 C219.416412,321.459662 220.685731,319.405212 221.974785,317.364304 C222.471628,316.577637 222.971482,315.79291 223.474252,315.010212 C225.334277,316.575191 224.573358,317.012855 224.346417,323.290456 C224.33894,323.498075 224.334925,323.705141 224.334325,323.9113 C224.333752,324.15027 224.337681,324.387986 224.346126,324.623946 C224.347506,324.668054 224.34923,324.711952 224.35111,324.755785 L224.346126,324.623946 C224.468839,328.052853 225.545173,331.110963 227.35348,332.101616 C227.373166,332.112599 227.393086,332.123199 227.413093,332.133547 L227.35348,332.101616 C227.400139,332.127177 227.447286,332.151362 227.494916,332.174142 L227.413093,332.133547 C227.45855,332.157058 227.504458,332.179273 227.550816,332.200165 L227.494916,332.174142 C227.530638,332.191226 227.566631,332.20752 227.602896,332.22301 L227.550816,332.200165 C227.599801,332.222241 227.649287,332.242841 227.699271,332.261932 C227.78819,332.296085 227.878698,332.325371 227.970759,332.349714 C227.983339,332.352653 227.995335,332.355719 228.007358,332.358701 L227.970759,332.349714 C228.010236,332.360153 228.049999,332.369683 228.090046,332.37829 L228.007358,332.358701 C228.135127,332.390395 228.265851,332.412598 228.399468,332.42485 C228.40648,332.426336 228.41382,332.426988 228.42117,332.427609 L228.399468,332.42485 C228.445436,332.429065 228.491747,332.432103 228.538397,332.433944 L228.42117,332.427609 C228.464503,332.431275 228.508139,332.433897 228.552076,332.435461 L228.538397,332.433944 C229.52324,332.472809 230.659608,331.978448 231.924163,330.774658 C231.932436,330.767922 231.940784,330.759945 231.949137,330.751937 L231.924163,330.774658 C232.423886,330.298949 232.943628,329.712452 233.481948,329.004293 C233.564972,328.895269 233.649075,328.782258 233.733622,328.666268 C233.828652,328.53583 233.924213,328.401779 234.020325,328.263908 C235.684558,325.876651 236.285283,321.261288 237.731475,318.931502 C238.870628,317.101272 240.770701,315.801543 242.167945,314.072992 C244.74884,310.876721 250.253267,305.938636 248.686931,301.190647 C246.933702,301.022655 245.523109,299.634509 243.75653,299.457676 C243.725688,299.34734 243.699792,299.234638 243.678721,299.119675 C243.67342,299.090379 243.668349,299.06081 243.663593,299.031096 C243.654394,298.974243 243.646408,298.916682 243.639564,298.858595 C243.637816,298.842663 243.636018,298.826592 243.634307,298.810481 C243.613297,298.614343 243.605268,298.412608 243.609514,298.205461 C243.610445,298.17581 243.611325,298.145689 243.612461,298.115455 C243.613656,298.074241 243.615656,298.033043 243.618122,297.991643 C243.621346,297.944254 243.624781,297.89679 243.628817,297.849068 C243.630448,297.824591 243.632704,297.79966 243.635121,297.774659 C243.640832,297.720533 243.646795,297.666514 243.653498,297.612182 C243.656852,297.580777 243.660977,297.549159 243.665349,297.517438 C243.674001,297.458718 243.682995,297.39943 243.692831,297.339793 C243.697503,297.307767 243.702922,297.276188 243.708574,297.244513 C243.715848,297.207363 243.722841,297.169917 243.730156,297.13234 C245.262546,289.242388 260.946545,275.597275 267.264927,276.858311 C267.262764,276.940126 267.261512,277.020785 267.261157,277.100302 L267.264927,276.858311 C267.248642,277.479619 267.284808,278.034225 267.367298,278.528343 C267.383659,278.627522 267.401951,278.723603 267.422035,278.817332 C267.461396,279.00011 267.50749,279.174334 267.560069,279.339931 C267.563907,279.35265 267.568072,279.365593 267.572278,279.378482 L267.560069,279.339931 C267.621777,279.534281 267.692417,279.716748 267.771403,279.887926 C267.779634,279.906183 267.788135,279.924274 267.79673,279.942239 L267.771403,279.887926 C267.842624,280.042275 267.92063,280.187446 268.004992,280.323874 C268.026246,280.358613 268.048205,280.392894 268.070571,280.426612 L268.004992,280.323874 C268.030062,280.364416 268.055692,280.404186 268.081873,280.443195 L268.070571,280.426612 C268.097655,280.467445 268.125337,280.507453 268.153604,280.546648 L268.081873,280.443195 C268.124717,280.507032 268.169035,280.568833 268.214775,280.628646 L268.153604,280.546648 C268.186527,280.592301 268.220244,280.636852 268.254733,280.680322 L268.214775,280.628646 C268.248154,280.672295 268.282292,280.714886 268.317168,280.756438 L268.254733,280.680322 C268.2897,280.724394 268.325462,280.767355 268.361996,280.809225 L268.317168,280.756438 C268.392414,280.846088 268.4711,280.930903 268.553032,281.01108 C268.563916,281.022216 268.574955,281.032883 268.586052,281.043468 L268.553032,281.01108 C268.589057,281.046333 268.62571,281.080689 268.662975,281.114165 L268.586052,281.043468 C268.624892,281.080514 268.66444,281.116547 268.704675,281.151584 L268.662975,281.114165 C268.744838,281.187707 268.829652,281.257 268.917242,281.32222 C268.93009,281.332442 268.943086,281.341992 268.956142,281.351454 L268.917242,281.32222 C269.047047,281.418875 269.182949,281.506587 269.324382,281.585928 C269.337274,281.59403 269.350657,281.601445 269.364088,281.608785 L269.324382,281.585928 C270.166584,282.058389 271.204919,282.234059 272.319923,282.234059 C273.967206,282.234059 275.778561,281.850701 277.367347,281.473095 C277.462483,281.450617 277.55784,281.42776 277.652293,281.405013 C277.887312,281.348369 278.115091,281.292891 278.336079,281.239369 C278.385027,282.733615 279.355087,284.042185 279.350638,285.492223 L279.693958,285.323055 C282.931388,283.715973 287.082429,281.355988 291.013615,281.279157 L291.013615,281.279157 C286.964279,289.638977 278.607518,299.590301 290.924619,304.669853 L291.28092,304.119896 C295.82731,297.224741 301.594487,292.975015 303.762348,285.518748 C306.102953,277.490492 305.94721,271.486983 311.077852,264.422471 C314.989243,259.03788 321.192292,253.321727 323.621893,247.304955 L323.621893,247.304955 C320.364625,254.285471 306.645831,254.188212 301.439542,260.333188 C297.933974,264.4711 299.842947,270.235405 297.783548,275.511793 L297.617147,275.916671 C297.489087,275.809431 297.362684,275.70605 297.237792,275.60646 C297.105491,275.501106 296.974726,275.399762 296.8455,275.302602 C296.798361,275.266948 296.750884,275.231652 296.703607,275.196921 L296.8455,275.302602 C296.658765,275.162202 296.475244,275.030535 296.29441,274.907345 C296.269904,274.890361 296.245598,274.87392 296.22134,274.857633 L296.29441,274.907345 C296.21447,274.852887 296.135055,274.800085 296.05612,274.748919 L296.22134,274.857633 C296.136065,274.800379 296.051375,274.745016 295.967212,274.691517 L296.05612,274.748919 C295.980335,274.699793 295.904993,274.652175 295.830052,274.606044 L295.967212,274.691517 C295.846862,274.615013 295.727592,274.54232 295.609242,274.47336 C295.154041,274.208596 294.712577,273.998736 294.275453,273.839589 C294.254593,273.831278 294.233984,273.823879 294.213385,273.816592 L294.275453,273.839589 C294.200555,273.81232 294.125784,273.78654 294.051094,273.762226 L294.213385,273.816592 C294.138352,273.790051 294.063439,273.765002 293.988598,273.741422 L294.051094,273.762226 C293.632697,273.626026 293.216832,273.535832 292.795283,273.487649 C292.786541,273.485642 292.777526,273.484632 292.768509,273.48364 L292.795283,273.487649 C292.717239,273.478729 292.639,273.471248 292.560514,273.465182 L292.768509,273.48364 C292.684771,273.474432 292.600813,273.466884 292.516569,273.460964 L292.560514,273.465182 C292.473019,273.45842 292.385217,273.453416 292.297036,273.450135 L292.516569,273.460964 C292.440887,273.455646 292.364975,273.451642 292.288787,273.44893 C292.224821,273.447448 292.152352,273.445916 292.079588,273.445521 L292.288787,273.44893 C292.202329,273.445853 292.115515,273.444439 292.028279,273.444656 L292.041523,273.445418 C291.844794,273.445418 291.645908,273.45376 291.444095,273.470063 C291.438497,273.470001 291.432501,273.470494 291.426502,273.470994 L291.444095,273.470063 C291.137523,273.494828 290.824196,273.537962 290.501413,273.598122 C290.496844,273.598636 290.49218,273.599509 290.487515,273.600385 L290.501413,273.598122 C289.649597,273.756885 288.731926,274.034226 287.698768,274.405493 C287.667623,274.416537 287.636761,274.427679 287.605795,274.438903 L287.698768,274.405493 C287.577262,274.449156 287.45416,274.494118 287.329379,274.540339 L287.605795,274.438903 C287.473913,274.486707 287.340148,274.536013 287.204401,274.586769 L287.329379,274.540339 C287.17041,274.599224 287.008717,274.660153 286.844134,274.723042 C283.778208,275.894566 282.634605,277.291554 279.657675,278.246456 C279.433505,278.319788 279.221091,278.364754 279.01837,278.388529 C278.642041,278.434333 278.301453,278.407179 277.988829,278.340697 C277.975109,278.337026 277.961153,278.333995 277.947251,278.330888 C277.821577,278.303255 277.700541,278.268745 277.583512,278.230261 L277.553145,278.220285 C277.536835,278.214827 277.520602,278.209293 277.504447,278.203689 C277.467058,278.190441 277.429756,278.176923 277.392853,278.163112 C277.308317,278.131947 277.226144,278.098901 277.145903,278.065157 C277.09381,278.042927 277.042662,278.020908 276.992233,277.998889 C276.820497,277.924366 276.656861,277.849843 276.498897,277.785017 C276.410395,277.748917 276.323896,277.715958 276.238813,277.68774 C276.23261,277.68499 276.226626,277.68301 276.220648,277.681055 L276.238813,277.68774 C276.054525,277.626622 275.876879,277.58775 275.701786,277.58775 C275.632001,277.58775 275.562553,277.593774 275.493165,277.606926 C275.488918,277.605571 275.484572,277.606428 275.480227,277.607313 L275.493165,277.606926 C275.383401,277.627731 275.273785,277.666374 275.163215,277.727228 C275.160416,277.727628 275.157765,277.729112 275.155113,277.730609 C275.125922,277.747752 275.088522,277.770803 275.05097,277.796548 L274.940866,277.879526 C277.085679,275.700049 280.329598,276.425068 282.171823,274.351691 C284.908462,271.265941 283.853855,269.294243 285.153202,265.235907 C286.799636,260.0812 297.05647,248.781518 288.864352,245.156424 L288.864352,245.156424 C285.695497,248.943857 274.170404,256.995547 268.910955,258.015774 L268.653271,258.060873 C309.364671,216.093782 360.114864,183.848132 417.094805,165.108165 L417.094805,165.108165 C414.153474,170.041829 409.485613,173.773023 404.079082,176.57584 L404.724671,176.438288 C410.752198,175.034247 416.837943,170.336502 423.102061,168.437062 C428.539741,166.788087 432.789318,167.212488 438.307095,166.226639 C438.585326,166.176873 438.862116,166.121137 439.137588,166.059825 C439.321686,166.018996 439.505284,165.975532 439.68833,165.929688 L439.137588,166.059825 C439.456072,165.988939 439.772795,165.910598 440.087949,165.825405 L439.68833,165.929688 C439.91473,165.872988 440.140286,165.812648 440.365068,165.748892 L440.087949,165.825405 C440.30425,165.766935 440.519811,165.705237 440.734695,165.640506 L440.365068,165.748892 C440.599725,165.682334 440.833538,165.612053 441.066588,165.538299 L440.734695,165.640506 C440.959624,165.57275 441.183812,165.501671 441.407327,165.427494 L441.066588,165.538299 C441.285992,165.468863 441.504719,165.39635 441.722836,165.320969 L441.407327,165.427494 C441.656485,165.344806 441.904808,165.258269 442.152395,165.168191 L441.722836,165.320969 C441.945155,165.244136 442.166839,165.164323 442.387959,165.081754 L442.152395,165.168191 C442.354207,165.094768 442.55553,165.018992 442.756416,164.941032 L442.387959,165.081754 C442.62109,164.9947 442.853593,164.904581 443.085551,164.811658 L442.756416,164.941032 C442.994281,164.848722 443.231534,164.753349 443.468264,164.655193 L443.085551,164.811658 C443.300092,164.725713 443.514166,164.637369 443.727841,164.546832 L443.468264,164.655193 C443.702168,164.558208 443.935562,164.458506 444.16853,164.356355 L443.727841,164.546832 C443.932861,164.459963 444.137512,164.371075 444.341852,164.28035 L444.16853,164.356355 C444.399342,164.25515 444.629737,164.151541 444.859796,164.04579 L444.341852,164.28035 C444.551738,164.187163 444.761296,164.092038 444.970588,163.995173 L444.859796,164.04579 C445.08128,163.943981 445.302453,163.840187 445.523389,163.734642 L444.970588,163.995173 C445.183122,163.896808 445.395381,163.796648 445.607431,163.694901 L445.523389,163.734642 C445.725308,163.63818 445.92703,163.540256 446.128611,163.441047 L445.607431,163.694901 C445.854961,163.57613 446.102207,163.455195 446.349272,163.332424 L446.128611,163.441047 C446.345558,163.334274 446.562341,163.226014 446.779031,163.116487 L446.349272,163.332424 C446.547018,163.234162 446.744648,163.134724 446.942216,163.034278 L446.779031,163.116487 C449.853884,161.562285 452.909912,159.753084 456.147906,158.32341 C456.200251,158.301584 456.252879,158.278477 456.305557,158.255472 C456.493237,158.172176 456.681475,158.091514 456.870371,158.01228 C456.905877,157.998799 456.940533,157.984327 456.97521,157.969904 C457.177505,157.884297 457.381492,157.801403 457.586296,157.720335 C457.620203,157.708463 457.653194,157.695468 457.686206,157.68252 C458.142771,157.501782 458.6044,157.331438 459.070667,157.171993 C459.088257,157.167837 459.105264,157.162042 459.122278,157.156261 C459.357397,157.074454 459.594277,156.997114 459.832415,156.922789 C459.840267,156.922368 459.847262,156.92019 459.854258,156.918014 C460.084133,156.844428 460.316026,156.775448 460.549164,156.7095 C460.571954,156.705258 460.593658,156.699154 460.615374,156.693076 C461.648372,156.401451 462.707021,156.171619 463.795662,156.018906 C460.680788,157.995024 456.115273,162.557337 455.091814,166.116118 C458.949808,166.346002 466.171865,163.136468 469.989811,162.004731 C475.489788,160.373439 479.739365,158.932243 485.564179,158.123229 C492.541496,157.150642 498.789043,157.075488 505.423724,155.320412 C510.879203,153.874796 517.189047,152.053407 523.004962,151.288601 C537.662668,149.365533 550.473698,153.658174 564.143544,156.810237 C578.903596,160.21871 590.223937,162.575021 604.970639,161.032145 C609.309214,160.576798 613.514293,160.89952 617.661525,161.226663 C620.558358,161.452126 623.428491,161.677589 626.294175,161.637801 C628.376691,161.611276 630.388009,161.147087 632.390428,160.598902 C666.351452,170.187717 698.287807,184.506838 727.447475,202.831244 C722.610521,203.976243 716.9726,203.445742 712.602877,202.296322 C714.729891,205.245026 714.787738,208.865699 716.919202,211.885137 C720.238767,216.593338 726.570861,220.505787 730.059519,225.107887 C727.189386,221.51374 721.831803,220.961134 717.533277,219.095537 C710.458064,216.018628 709.835089,212.941719 705.830251,206.695064 C701.113443,199.329934 687.946426,189.58639 679.21588,187.689847 C680.817815,190.024053 682.882531,192.141639 683.323064,194.851617 C680.995808,195.015189 677.823087,194.679204 674.476822,194.347641 C667.561802,193.657989 659.912563,192.968337 657.478511,196.673006 C653.184435,203.215858 659.47648,209.241471 665.612781,211.186643 C669.185987,212.313959 670.988164,211.288323 672.892686,210.262686 C674.401175,209.449251 675.971962,208.635815 678.530608,208.896645 C681.872422,209.241471 698.292257,219.577409 700.174531,222.358121 C702.243697,225.404084 701.602923,230.355432 703.280505,233.441182 C705.207277,236.995542 709.212114,239.780675 710.760652,242.800113 C705.434217,240.346544 703.044664,236.969017 700.125583,232.85321 C698.652692,230.775412 699.102124,229.170645 697.246549,227.216631 C694.630055,224.462444 690.295931,223.945205 687.759534,220.974396 C688.507104,226.434141 693.250611,228.763927 694.536609,233.27319 C695.208532,235.633922 695.026089,242.136986 695.137335,244.475614 C695.75141,257.486163 689.83315,258.604638 678.321466,261.420716 C680.884562,268.971521 674.743811,269.541811 673.128527,275.257964 C673.355468,274.45337 673.644706,276.90694 673.831598,279.356089 C674.005141,281.681454 674.089688,284.006819 673.942844,283.560313 L673.948776,283.576521 L674.024306,283.805412 C675.216312,287.363097 675.094045,285.641784 678.027857,287.64732 L678.22802,287.786642 C683.781395,291.725616 690.56737,290.209266 690.091239,298.078372 C689.8287,302.40638 682.789085,312.38865 676.897524,310.487686 C672.127317,308.949232 673.876097,303.078348 673.773751,298.85202 C673.613557,291.959921 673.711453,293.113761 669.323931,290.010328 C664.455828,286.566489 665.136651,289.068687 661.870483,282.640777 C659.73902,278.454236 659.320736,274.970609 653.010892,275.991825 C648.009295,276.80084 647.190528,282.123538 641.868544,279.692073 C638.281989,278.060781 640.511349,273.768139 636.657805,271.111211 C636.902545,277.543542 630.984285,277.388812 629.991975,281.509041 C628.794974,286.526701 634.579739,289.696448 636.840248,293.57795 C640.204311,291.615095 644.489488,292.123492 648.449827,292.331272 C649.37094,296.60623 646.251616,299.422309 641.997589,299.718505 C641.263368,302.136708 642.20228,303.648638 642.625013,304.011147 C644.298145,309.700776 649.157348,306.11547 652.846249,308.542514 C657.167024,311.389539 657.696552,320.509744 658.942502,324.802386 C662.133023,335.766084 661.421051,344.510517 656.5307,354.669621 C653.108788,361.787183 650.051762,368.966637 644.480588,374.775629 C640.435702,378.997537 635.745592,380.376841 631.131129,383.577533 C627.277585,386.252145 624.389652,390.597837 619.801888,392.282179 C615.418816,393.886946 610.666409,392.856889 606.269987,394.819745 C596.208945,399.306903 602.300748,406.229948 598.763141,413.683495 C594.491314,414.2361 592.729186,418.515479 587.861083,417.37048 C587.745388,410.089347 603.066117,398.657039 585.827515,396.172524 C578.227223,395.080575 564.032299,403.621649 564.75317,410.845312 C565.919022,422.494241 571.459048,428.064507 581.039509,435.880562 C585.992159,439.921216 589.939149,440.389825 591.452087,446.380072 C591.742075,447.524401 590.596059,448.504712 588.645407,449.328758 C587.623095,449.76063 587.200957,444.220065 585.827515,444.567211 C583.443138,445.169877 577.329488,444.90982 574.482053,446.380072 C570.093488,448.646075 569.048545,452.74609 567.034715,452.74609 C564.021828,452.74609 553.209453,448.599503 541.28601,446.380072 C531.406856,444.541164 519.839794,444.967908 519.648246,441.680712 C519.400982,437.377624 511.226462,447.08856 509.035888,443.54117 C507.7179,441.406836 505.842743,439.704517 503.163216,438.789479 C500.070591,437.737318 496.40839,438.913263 492.603794,440.089208 C489.25753,441.123686 485.80447,442.158164 482.529402,441.680712 C483.637407,436.738207 486.471942,432.724078 485.337238,427.149392 C484.447275,422.799279 480.891869,419.82405 479.37448,415.725926 C477.474407,410.588902 478.066233,406.495199 474.070295,402.189295 C471.934382,399.890455 463.506423,398.268005 463.817911,395.350246 C461.376705,398.306492 454.844272,398.267349 448.447392,398.110739 L447.665065,398.091171 C443.130699,397.976229 438.756527,397.861287 436.046586,398.780823 C430.938193,400.513794 428.931325,402.00362 425.696306,406.455411 C420.134031,414.107896 415.354925,418.431483 406.913617,423.205997 C395.562127,429.629486 383.204978,434.691355 383.053684,449.178467 C382.969138,457.516183 381.4384,462.339326 379.346985,469.792872 C378.083236,474.306556 372.899196,484.456818 373.313029,488.06865 C369.10795,489.456795 367.804152,494.213626 364.328843,496.755612 C358.294888,491.313551 357.057838,485.531084 355.447003,477.913966 C351.624608,459.80176 344.883131,442.264264 343.014207,423.373989 C342.226589,415.407625 342.987508,410.164501 338.373045,404.399718 C335.235922,400.482848 331.818461,394.722486 326.047045,394.527969 C327.439838,393.144244 328.863781,390.916138 329.522354,388.869286 C327.1506,387.914383 324.276017,387.702183 321.610575,387.892279 C320.222231,380.78798 326.874711,377.467924 318.5313,372.53426 C318.104117,371.429049 317.312049,370.907389 316.920465,369.71376 C312.159158,368.577603 309.751805,374.223023 305.221889,374.815417 C300.985661,375.368022 295.614728,372.264588 291.832382,370.951597 C289.456178,370.12932 281.77134,369.461772 279.933564,367.750905 C278.273781,366.203609 278.576369,359.510448 278.336079,357.136453 C275.631371,359.23309 272.986523,362.55312 269.931283,363.561756 C269.931098,363.56236 269.930734,363.563362 269.930369,363.564363 L269.817205,363.598277 C269.773591,363.611802 269.729893,363.62485 269.686109,363.637412 L269.930369,363.564363 C269.813057,363.60262 269.695204,363.637474 269.576774,363.668747 C269.509333,363.685738 269.442356,363.70244 269.375174,363.717961 L269.342828,363.725642 C269.320964,363.730502 269.29908,363.735237 269.277175,363.739846 C269.213685,363.753269 269.149777,363.765786 269.08568,363.777202 C269.068486,363.779841 269.051478,363.78275 269.034458,363.785581 C267.81367,363.992017 266.523693,363.7966 265.137067,362.991725 C265.086255,362.961695 265.034831,362.931119 264.983272,362.899698 C264.892623,362.844897 264.801575,362.787007 264.710108,362.726451 L264.674662,362.702531 C264.652669,362.687833 264.630652,362.672981 264.608611,362.657974 C264.498976,362.583574 264.388793,362.50508 264.277994,362.422657 C264.239466,362.393875 264.20021,362.364261 264.160877,362.334151 C264.128578,362.309502 264.096602,362.284721 264.064575,362.259611 C264.018266,362.223276 263.971556,362.186065 263.924735,362.148151 C263.9051,362.132235 263.886057,362.116703 263.866995,362.101055 C263.82526,362.06684 263.782853,362.031546 263.740357,361.995671 C263.702774,361.963856 263.665473,361.931966 263.628102,361.899627 C263.587365,361.864499 263.546381,361.828582 263.505312,361.792122 C263.467105,361.758047 263.42882,361.723644 263.390461,361.688768 C263.365407,361.666168 263.340438,361.6433 263.315439,361.620231 C263.276545,361.584142 263.2376,361.54778 263.198579,361.51093 C262.795796,361.130832 262.384779,360.698115 261.965192,360.208941 C256.656557,354.024178 262.209932,342.857121 256.216025,336.32311 L256.137747,336.477102 C253.491995,341.711372 244.731397,361.940366 253.13675,365.288493 C252.353582,371.305265 253.603981,371.986075 254.86328,377.578445 C260.5457,379.028483 268.484178,370.323837 271.656899,366.137296 C270.65569,370.314995 265.849885,376.274296 269.271796,380.642092 C270.713538,382.485584 274.84742,380.991338 276.480504,383.365333 C277.659706,385.080621 279.386236,388.440464 279.226043,389.479363 C278.291581,395.416559 273.36563,395.929377 271.073973,400.164548 C269.520986,403.033677 269.841373,406.835604 268.168241,409.797571 C264.928772,415.54025 260.238662,417.781619 254.752035,419.757737 C254.674296,419.785802 254.59454,419.813633 254.512875,419.841257 C254.51187,419.841066 254.511807,419.8414 254.511744,419.841733 L254.489442,419.84916 C254.422106,419.871803 254.35349,419.894307 254.283654,419.916688 L254.511744,419.841733 C254.400012,419.879425 254.284713,419.916735 254.166124,419.953733 C252.956644,420.331983 251.403771,420.676754 249.801679,421.05961 C249.605003,421.106214 249.408178,421.153687 249.211156,421.201864 C249.145973,421.218099 249.080709,421.234115 249.015443,421.250212 L249.211156,421.201864 C248.912652,421.274856 248.613695,421.349462 248.31616,421.426136 C248.26981,421.43817 248.223409,421.450175 248.177049,421.462232 L248.31616,421.426136 C248.163754,421.46541 248.011721,421.505227 247.860313,421.545647 L248.177049,421.462232 C248.023346,421.502208 247.870101,421.542757 247.717574,421.583941 L247.860313,421.545647 C247.738351,421.578207 247.616793,421.611157 247.495773,421.644531 L247.717574,421.583941 C247.405737,421.66814 247.0969,421.754996 246.793279,421.845049 C246.735459,421.862475 246.677604,421.879821 246.619955,421.897287 L246.793279,421.845049 C246.697388,421.87349 246.602017,421.90225 246.507236,421.931346 L246.619955,421.897287 C246.203865,422.02335 245.798518,422.155682 245.409738,422.295691 C245.365177,422.311201 245.320599,422.327429 245.27625,422.343762 L245.409738,422.295691 C245.277425,422.343341 245.147031,422.391879 245.018786,422.441362 L245.27625,422.343762 C245.163949,422.385119 245.053115,422.427145 244.943893,422.469877 L245.018786,422.441362 C244.896718,422.488462 244.776596,422.536418 244.658619,422.585277 L244.943893,422.469877 C244.811184,422.521797 244.680855,422.574757 244.553165,422.628822 L244.658619,422.585277 C244.540088,422.634366 244.423722,422.684367 244.309722,422.735328 L244.553165,422.628822 C244.424646,422.683237 244.298801,422.73877 244.175893,422.795486 L244.309722,422.735328 C244.193451,422.787305 244.07964,422.840281 243.968503,422.894309 L244.175893,422.795486 C244.059496,422.849198 243.945734,422.903971 243.834831,422.959858 L243.968503,422.894309 C243.857587,422.948228 243.749334,423.003195 243.643957,423.05926 L243.834831,422.959858 C243.598765,423.078821 243.375657,423.202837 243.167676,423.332434 C243.12696,423.358257 243.086281,423.384177 243.046215,423.410319 L243.167676,423.332434 C243.104682,423.371687 243.043075,423.411452 242.982916,423.451744 L243.046215,423.410319 C242.952536,423.471443 242.862205,423.533786 242.77544,423.597399 L242.982916,423.451744 C242.730201,423.621001 242.503037,423.799553 242.305889,423.988487 L242.402257,423.899165 C242.369386,423.92868 242.337257,423.958453 242.305889,423.988487 C240.712854,425.513679 240.574909,429.174139 239.06642,431.097207 C237.055102,433.670139 234.767895,434.275795 232.538535,436.030871 C224.155509,442.62548 217.741945,448.862423 208.128586,452.479738 L207.401504,452.74609 C208.812097,439.47471 208.442762,427.043291 211.958119,413.365194 C214.583513,403.144198 213.261916,392.087662 215.442328,381.742882 C217.413598,372.397214 215.40228,360.584713 218.299112,351.99943 L218.299112,351.99943 C213.039425,357.083403 210.583125,363.948977 210.236039,371.292002 C209.737659,381.853403 208.785398,389.594305 205.657175,399.669413 C204.024091,404.925799 204.922954,408.338692 204.322229,413.002684 C203.632507,418.31212 200.143848,422.136152 200.611079,427.799256 C201.162857,434.5101 202.880487,441.755867 203.55686,448.785012 C204.068589,454.05024 200.34854,465.155405 205.786219,468.166001 L206.057096,468.308913 C206.086129,468.32343 206.115141,468.33768 206.144134,468.351666 C206.204259,468.380688 206.264333,468.408598 206.324327,468.435396 L206.144134,468.351666 C206.240011,468.397917 206.335673,468.441276 206.431128,468.481816 L206.324327,468.435396 C206.415234,468.476002 206.505957,468.514056 206.596498,468.549614 L206.431128,468.481816 C206.524042,468.521278 206.61676,468.558068 206.709288,468.592253 L206.596498,468.549614 C206.683315,468.583709 206.769966,468.61551 206.856453,468.645065 L206.709288,468.592253 C206.944421,468.679126 207.178323,468.749177 207.41109,468.803494 C207.427611,468.808709 207.443959,468.812471 207.460301,468.816156 L207.41109,468.803494 C207.497563,468.823672 207.58388,468.841679 207.670044,468.85757 L207.460301,468.816156 C207.537183,468.83349 207.613939,468.849113 207.690572,468.86306 L207.670044,468.85757 C208.448204,469.001083 209.213996,468.972023 209.971078,468.811436 C209.984327,468.809933 209.997673,468.807052 210.011016,468.804131 L209.971078,468.811436 C210.285608,468.74472 210.598635,468.655302 210.910421,468.546125 Z M745.598289,783.885139 C748.317129,786.714481 747.436065,788.164518 744.966415,790.383783 C743.186487,791.984129 744.085351,791.939921 741.713597,791.913396 C738.91466,791.88245 738.42518,791.334265 735.977779,793.434167 C732.600366,796.338663 731.697053,795.388181 733.908613,791.634883 C736.436111,787.342241 740.992726,785.755157 745.598289,783.885139 Z M798.711337,619.633027 C799.156319,624.955725 800.713755,629.911494 800.718205,635.38008 C800.718205,640.716041 800.624759,641.794728 805.684204,642.051137 C805.581858,645.685072 806.231532,648.85924 805.702003,652.652326 C805.159125,656.516145 802.475884,660.14566 802.983164,664.084633 C803.962124,664.464826 804.834288,664.911332 805.693104,665.503725 C805.141326,667.815827 803.583889,675.008544 807.397385,675.472733 C806.703213,677.152654 807.740021,677.957248 808.483141,679.239294 C810.423262,682.581453 810.46331,685.211857 811.006188,688.987259 C811.45562,692.12606 811.789357,695.012872 811.250928,698.226827 C810.352065,703.567209 807.090347,708.054368 805.145776,713.036661 C804.184615,715.507914 803.668436,718.156001 802.364639,720.459262 C799.699197,725.1542 795.102533,729.181591 791.547127,733.186877 C785.522071,739.986139 782.438346,749.022348 776.012807,755.273424 C773.018078,758.186762 769.542769,760.538652 766.490193,763.394518 C764.567871,765.198223 763.384219,767.58548 761.466346,769.314031 C758.969997,771.559821 756.300106,770.313142 753.354325,771.497929 C751.605546,772.200843 750.105957,773.743719 748.53517,774.760513 C745.260103,776.873678 741.006076,781.528829 736.685301,780.083212 C733.721721,779.092942 734.691782,776.701265 735.296957,773.880765 C735.514998,772.868391 736.534007,770.618181 736.146873,769.561598 C735.688541,768.323761 734.131104,768.443124 733.138794,767.567797 C730.437754,765.193803 733.450282,763.566931 733.330137,760.414868 C730.597947,760.242455 726.731054,765.273378 726.054682,767.563376 C722.187788,763.97807 722.236736,758.624425 716.825756,756.100122 C712.700773,754.177054 705.185028,755.140799 701.140141,757.072708 C695.920503,759.566066 691.025701,763.491777 685.997405,766.471427 C682.268456,768.68185 680.577525,774.508525 676.212252,775.31754 C673.270921,775.861304 669.35953,774.610205 666.409299,774.340533 C663.147581,774.048757 660.077206,774.433371 656.877786,774.968293 C652.788401,775.653524 650.701436,778.562441 646.798944,779.517344 C644.600733,780.052266 642.233429,780.644659 640.24881,781.687979 C638.50893,782.607515 638.486681,783.292746 636.417515,783.182225 C634.174806,783.062862 632.323681,782.152168 629.894079,782.240585 C628.176449,782.302477 626.530016,782.015122 624.874683,781.935546 C621.537318,781.776396 619.459252,782.169851 618.680534,778.40329 C623.437391,778.213194 623.966919,772.253894 623.94912,769.504127 C623.940221,767.766735 625.453159,767.855152 625.898141,766.727836 C626.610112,764.924131 625.889242,761.016103 625.364163,759.32734 C624.425251,756.276956 622.409483,753.31941 620.647354,750.671323 C618.965322,748.138179 614.644547,744.318568 614.293012,741.086929 C613.985974,738.301796 616.744862,735.843806 616.371077,732.793422 C616.233133,731.692631 615.538961,731.033925 615.445515,730.074602 C615.298671,728.611302 616.215334,726.462771 616.731513,725.074625 C618.555939,720.163065 620.429313,714.194923 623.971369,710.194057 C627.495626,706.210875 635.491952,703.04997 640.707141,702.612306 C644.952269,702.258639 647.920299,702.802403 652.000783,701.029644 C656.321558,699.155205 660.014908,696.162292 664.527025,694.822776 C670.280642,693.111908 672.750292,691.772392 674.743811,686.250755 C675.994211,682.780391 676.234501,676.825512 679.927851,675.043911 C684.439968,672.864434 684.270875,677.541689 687.376849,678.218078 C687.394649,676.785724 687.323451,674.482463 688.231215,673.319781 C689.761953,671.343663 691.840018,672.868854 693.415255,672.161519 C694.616706,671.617755 694.77245,670.892736 695.146234,669.39407 C695.893804,666.374632 697.064107,664.402934 699.266767,661.989152 C702.243697,658.730989 705.816902,656.131531 708.860579,652.864526 C710.960893,650.614316 711.245682,650.044027 714.133615,650.875146 C718.481089,652.126245 720.118622,656.308365 724.510594,653.695645 C726.401768,652.56833 726.82895,651.308388 727.999253,649.3809 C729.943824,646.184628 732.142035,643.001619 734.193402,639.792085 C735.377054,637.935329 736.129073,636.401296 738.144842,635.645331 C739.199449,635.247455 740.351952,635.764694 741.437708,635.026413 C743.395629,633.695738 742.087382,632.789465 742.799353,630.932709 C745.064311,625.039722 753.995099,632.696627 757.123322,633.417225 C759.139091,633.881414 769.168984,628.629448 770.121245,633.576375 C770.50838,635.592281 766.730483,638.474673 765.658076,639.76998 C764.603469,641.043184 764.131788,642.48438 763.072731,643.744321 C762.218366,644.761116 761.079212,645.251829 760.224847,646.392408 C758.520566,648.673564 756.69614,651.065242 758.66741,653.576282 C759.784314,654.999795 762.454206,656.993596 763.980494,657.771665 C766.895126,659.265911 769.596167,660.72479 772.555297,662.718592 C774.041537,663.717703 777.272106,666.144748 779.003085,665.516988 C781.374839,667.877719 783.608649,663.319827 784.285021,661.688535 C785.677815,658.333113 788.405554,654.977691 789.00183,651.441014 C789.25992,649.880455 788.881685,648.200534 789.00628,646.626713 C789.294744,642.973748 790.885273,639.777777 792.484027,636.557611 L792.939921,635.636489 C795.204879,631.025547 794.813295,623.138758 798.711337,619.633027 Z M715.210471,613.824035 C713.920023,617.205982 708.549091,619.995536 705.883649,622.015863 C704.032524,623.421692 702.831073,626.105145 700.9221,627.236882 C699.378013,628.151997 697.655933,628.337673 696.062897,629.288155 C694.323018,630.322632 692.859027,632.670102 691.016802,633.134291 C690.042291,630.556937 691.524081,629.376571 694.100527,627.630337 C696.120745,627.846959 697.139754,625.610011 698.407952,624.381015 C700.570565,622.281114 703.053564,620.17237 705.478716,618.377507 C708.477894,616.153821 712.340337,616.034458 715.210471,613.824035 Z M664.593773,624.862888 C666.507195,623.196229 675.709422,627.250145 675.126496,630.627671 C673.021731,631.052072 672.136217,628.457035 670.721174,627.360666 C668.994644,626.021149 666.658489,625.534856 664.593773,624.862888 Z M649.557832,618.50129 L649.281943,619.606502 C650.269803,618.34214 654.741872,621.074223 655.881026,622.10428 C653.393577,623.974298 647.862451,621.869975 649.557832,618.50129 L649.557832,618.50129 Z M576.069061,604.668463 C578.142677,604.531417 579.664515,605.587999 581.50674,606.410276 C587.887782,609.261722 593.699246,609.076047 600.138135,607.152979 C605.509068,605.552632 610.515115,607.391704 615.881597,607.714426 C618.52479,607.873576 619.472602,609.115834 621.844356,609.734753 C623.624283,610.198941 625.244018,609.235197 626.992797,609.977899 C626.819254,612.325368 621.960051,611.312995 623.250499,614.328012 C624.354054,616.896523 628.14085,615.282914 629.925228,615.181235 C633.062351,614.99998 631.83865,615.94162 633.534032,617.462391 C635.54535,619.274938 638.611276,618.775383 640.070817,621.503045 C636.29737,622.152909 629.600391,621.242215 625.978238,620.442042 C623.642083,619.920382 621.73311,618.744437 619.325758,618.50129 C616.709264,618.231619 613.919227,618.50129 611.284934,618.50129 C608.868681,618.50129 606.536976,618.346561 604.169672,618.227198 C601.98481,618.116677 600.26273,618.983162 598.278111,619.067159 C595.501423,619.186521 592.635739,617.073357 589.850152,616.578222 C587.727588,616.198029 585.72517,615.62774 583.544758,615.733841 C580.794769,615.866466 579.348578,616.180346 576.674236,615.512798 C575.241394,615.15471 573.986545,614.809884 572.486956,614.858513 C572.842942,614.142336 574.231285,613.129962 574.12449,612.144114 C573.901999,610.075158 572.535904,611.777183 571.476847,611.878863 C569.474428,612.07338 565.990219,611.675504 564.196942,610.473034 C565.558587,610.026528 566.728889,609.208672 568.232929,609.332456 C567.239506,606.03595 569.605033,605.794821 572.181822,605.782192 L573.007585,605.782516 C573.532664,605.694099 574.60507,604.765722 576.069061,604.668463 Z M703.458497,612.400523 C702.452838,615.384594 701.193539,615.335965 698.826235,616.56496 C696.013949,618.02826 694.496561,621.096327 690.896657,621.547253 C687.812932,621.931867 684.373221,621.025593 681.231648,620.990227 C677.97438,620.95486 673.738152,620.738238 670.992613,618.779804 C669.613169,616.834631 673.55126,615.526061 674.890655,615.459748 C677.716291,615.318281 680.662071,616.697585 683.518856,616.843473 C687.234455,617.033569 690.282582,615.389015 693.891385,614.898301 C697.197601,614.451795 700.152281,612.625986 703.458497,612.400523 Z M775.493356,561.861053 C776.716576,560.15749 791.27043,560.962454 796.969262,560.962454 C800.186665,560.962454 802.268321,563.152837 804.927735,564.027626 C808.456442,565.185887 813.613783,566.109844 816.461667,568.735827 C818.183747,570.327331 818.161498,572.338816 818.820072,574.372405 C819.207206,575.583717 819.727835,576.887867 820.217315,578.138966 C821.08503,580.358231 823.158646,581.092091 824.52919,583.107997 C827.337026,587.241488 822.54902,585.203478 821.240773,587.979769 C819.718935,591.202566 826.384765,594.120325 827.136784,597.343121 C828.329336,602.440357 829.96687,606.485431 834.123001,609.92927 C830.834585,610.053054 825.699493,610.389038 824.03526,608.510178 C822.419976,606.693211 823.180895,603.214005 821.970544,601.237887 C821.044981,599.734799 818.12145,596.86567 816.604061,596.078759 C811.744858,593.550035 810.997289,596.198122 810.049477,600.10615 C808.794628,605.291802 802.676126,607.740951 797.977116,609.456239 C791.364684,611.8656 795.810054,603.527885 789.878445,603.258213 C787.938323,603.169796 786.54108,604.089332 784.832349,604.677305 C783.390608,605.17244 779.14993,607.948731 777.877281,607.714426 C774.357474,607.051299 777.926229,604.80993 778.429059,604.098174 C780.057693,601.794913 780.38253,599.359027 782.238104,597.223758 C785.094889,593.943491 785.655566,588.514692 782.10461,585.048749 C777.481247,580.539486 773.95254,581.065566 768.261221,579.350278 C765.306541,578.461688 763.11278,575.115108 760.113601,574.841015 C760.006805,576.467886 757.376962,582.259195 754.738219,579.863096 C753.251979,578.514738 756.019767,575.199104 755.645982,573.970108 C755.178751,572.449337 745.909777,570.716366 751.316308,568.430788 C753.456671,567.528936 757.826394,569.823355 759.130191,566.649187 C759.89111,564.77917 758.484967,564.169093 756.647192,564.673069 C755.174301,565.075366 755.023007,566.520983 753.118485,566.5033 C752.459911,566.494458 749.834518,565.597026 749.456283,565.066525 C749.029842,564.467746 749.601315,563.01069 749.683911,562.188209 L749.690776,562.098521 L749.819765,562.088111 C753.374068,561.786399 762.457308,560.333359 762.451864,561.611331 L762.445307,561.671315 C761.915778,564.213301 761.737785,563.373341 762.445307,565.689864 C762.868039,567.060326 763.437616,571.861365 764.785912,572.011674 C766.227653,572.170824 771.50069,566.777392 772.412903,565.871119 C773.678102,564.616076 774.555084,563.167774 775.493356,561.861053 Z M534.298604,580.884312 C530.747648,575.641188 556.222865,566.697817 557.402068,568.085962 C558.981753,569.947139 560.183205,572.400708 562.150025,573.775591 C564.48618,575.406883 569.251937,575.260995 570.235347,578.253908 C570.707028,579.686262 569.554525,581.202612 570.088503,582.692438 C570.359942,583.452823 571.770535,584.027533 572.171019,584.924965 C572.687198,586.087647 572.549254,586.388265 572.446908,587.595156 C572.264465,589.867471 568.321925,599.752482 569.946109,600.804644 C567.102674,600.848852 565.198152,598.461595 562.470412,598.908101 C562.844197,601.069894 562.626156,602.957596 562.661754,605.181281 C560.481343,605.313907 558.910556,603.324526 557.704655,601.98943 C555.60879,599.677328 553.851111,598.342232 551.305815,596.388219 C548.226539,594.023066 544.243951,592.347565 541.480613,589.650849 C538.84632,587.082338 536.36777,583.930274 534.298604,580.884312 Z M691.217044,564.566969 C689.468265,565.331775 687.35015,566.459091 686.139799,568.01965 C684.546764,570.079764 685.254285,569.792409 686.162049,572.153141 C686.927418,574.151363 687.052012,576.291053 687.835181,578.289275 C688.60055,580.243289 689.58841,581.176087 690.060091,583.17431 C690.57627,585.340524 690.042291,587.692414 689.388168,589.717162 C686.838421,588.771101 686.210997,590.039884 683.888191,590.548281 C683.937139,587.864827 683.033825,583.735757 681.992568,581.282188 C681.156001,579.314911 679.073486,573.45729 676.243401,574.319355 C675.0286,578.687151 676.167754,583.713653 675.727222,588.253862 C675.433533,591.242354 674.672614,595.110594 675.433533,597.988565 C672.897136,599.257348 670.374088,598.863892 669.048042,596.653469 C668.643109,592.957642 672.768091,579.372382 666.587292,579.827729 C666.311403,581.839214 664.740617,582.405083 663.508017,581.016937 C661.69694,578.965664 663.761656,576.963021 664.785115,575.459934 C666.836482,572.458179 669.448526,569.403374 669.893508,565.67218 C669.981413,564.939927 668.279599,563.437289 669.965508,563.437289 L670.568778,563.436825 C672.042959,563.43342 673.575661,563.405045 676.531748,563.16859 C677.254696,563.110762 677.641626,564.416086 678.365965,564.83222 C681.467605,566.616554 683.438533,564.585737 685.827217,562.760201 C686.711285,562.084557 692.632086,563.948051 691.217044,564.566969 Z M610.8711,534.894251 C611.659828,534.561733 613.892051,535.670105 616.905076,537.643685 C617.440244,537.994229 616.18229,563.721344 616.905076,563.789098 C628.830572,564.906993 650.661855,564.906993 648.761314,566.012586 C649.103951,567.484727 649.241895,569.646521 649.014954,571.224763 C648.770214,572.926789 647.283974,575.123949 647.306223,576.733137 C647.337372,578.78441 650.630239,581.728693 649.299743,583.894908 C648.035994,585.959443 645.864482,583.69597 644.035606,583.399773 C644.578484,586.980658 640.693791,587.298959 637.739111,586.971817 C634.050211,586.565099 633.08905,583.22736 628.830572,583.38209 C623.46854,583.572186 619.619446,585.548304 614.528852,582.975372 C613.687836,582.550971 612.811222,581.534176 611.912358,581.313134 C610.163579,580.884312 609.678549,581.940894 608.259056,582.007206 C606.212139,582.100044 607.070954,582.210565 605.250978,581.030199 C602.839176,579.46522 601.619925,577.776457 601.379635,574.805648 C601.25504,573.289298 602.581086,570.840149 601.134895,569.58905 C600.890155,569.376849 598.745342,569.810092 598.117917,569.571367 C594.651508,568.253955 594.10678,565.90046 594.258074,562.730714 C594.36042,560.630812 596.768487,561.179486 596.732888,559.198947 C596.69284,557.116729 599.809936,552.368719 599.809936,550.377408 C599.809936,545.191469 599.809936,543.545846 604.183021,543.545846 C606.260058,543.545846 609.380411,543.948143 609.620701,541.759824 C609.914389,539.160367 606.42573,536.768689 610.8711,534.894251 Z M727.843509,575.968331 C722.454778,573.413082 727.874658,572.20177 731.354417,572.864897 C735.087815,573.576653 738.220488,575.915281 741.424359,577.020492 C742.995145,578.342325 744.792872,580.384756 742.536814,580.358231 C741.87824,580.349389 739.292895,578.4219 738.416281,578.05497 C735.21686,576.706612 731.621406,577.754353 727.843509,575.968331 Z M749.69179,562.08465 L749.690776,562.098521 L749.662064,562.101018 C748.380472,562.20175 747.923951,562.128849 749.086948,561.671315 C749.58001,561.47734 749.711237,561.685792 749.69179,562.08465 Z M723.740775,540.791659 C723.687378,538.373456 726.83785,532.95792 729.730233,533.598943 C730.78484,533.700622 730.971732,534.425641 730.802639,535.216972 C729.160656,535.548536 726.713255,538.010947 726.944646,540.097586 C727.33623,543.603317 730.815989,539.120579 733.036449,539.447722 C732.889605,542.546735 729.347548,542.219592 729.516641,545.150613 C729.659036,547.657233 733.276739,549.147058 733.588226,551.529894 C730.77149,551.366323 728.831369,545.513123 727.776762,550.747404 C727.558721,551.82167 728.395287,557.966646 725.160268,555.712014 C724.065612,554.947208 724.85323,549.849973 724.986725,548.53256 C725.146918,546.865902 725.818841,545.897736 725.275963,544.107294 C724.924427,542.94019 723.763024,541.79077 723.740775,540.791659 Z M698.554796,456.437496 C699.235619,457.909638 701.945559,459.204946 703.498546,460.562146 C707.267543,463.855676 706.382029,466.28272 707.530082,470.265903 C708.104109,472.255283 708.037362,474.209297 708.553541,476.150049 C708.971824,477.715028 710.133227,479.196012 710.529261,480.995296 C710.885246,482.613326 711.325779,483.245507 711.873106,484.722069 C712.331438,485.964327 712.389285,487.237531 712.820918,488.470947 C713.50174,490.429381 715.615405,492.339187 715.811197,494.315305 C716.282878,498.983718 709.81729,498.744993 708.856129,502.109257 C707.84157,505.645933 713.248101,509.439019 707.138498,509.615853 C705.055983,509.677745 700.695159,508.851047 699.645002,506.768828 C698.937481,505.376262 699.94314,503.064159 699.95204,501.512442 C699.969839,497.856403 698.94638,497.723777 695.907154,497.909453 C695.128435,497.958082 695.137335,497.224222 694.02043,497.617677 C692.961373,497.989028 691.862268,499.920938 691.05685,500.645957 C689.855399,501.737905 687.381299,504.169371 685.992955,502.339141 C688.435906,499.111923 684.840452,493.214514 689.57506,490.562007 C691.55523,489.452374 697.077456,491.985519 696.369935,488.554943 C698.639343,489.279961 701.362632,489.151757 703.805583,489.032394 C703.529695,487.869712 703.124761,485.424984 703.307204,484.231355 C703.511895,482.931627 704.263915,482.330392 704.615451,481.052767 C705.603311,477.445357 703.365051,477.365781 701.607373,475.234934 C699.769597,473.002406 701.149041,471.499319 702.1725,469.554147 C703.427349,467.171311 704.424108,465.230559 702.1725,463.179287 C699.996538,461.194327 696.806017,460.058169 698.554796,456.437496 Z M686.584781,464.735424 C689.232424,466.80438 688.805241,468.661136 690.438325,468.921966 C690.295931,471.472794 689.966644,475.013891 687.674987,476.804334 C687.986475,475.239355 688.324661,473.135032 687.639389,471.689415 C686.491335,472.122658 686.086402,474.306556 684.8983,474.156247 C684.230827,474.072251 683.318614,471.667311 683.242967,471.079338 C682.91813,468.603665 684.720307,466.300404 686.584781,464.735424 Z M671.829179,414.678185 C676.964271,415.482779 680.21709,421.305033 681.244998,425.124644 C681.988118,427.883252 681.752277,431.225412 680.737718,433.864657 C680.101394,435.518053 678.103425,437.396913 677.716291,439.00168 C677.471551,440.014054 677.653993,443.051175 678.214671,443.930923 C679.482869,445.942408 681.1827,444.868142 680.45738,447.613488 C680.239339,448.440186 679.322676,448.603757 679.060136,449.240359 C678.628504,450.305783 678.535058,450.907018 678.512809,452.290743 C678.47721,454.120973 678.561757,455.968887 678.46831,457.785854 C674.134186,457.586916 675.095347,454.403907 674.472372,451.459624 C674.103037,449.71781 672.109518,444.377429 669.889058,447.074145 C667.37491,444.735517 667.156869,441.238628 667.717546,438.033514 C668.224826,435.111335 669.83566,433.546356 670.939216,430.995528 C672.207414,428.055665 665.038755,415.129111 671.829179,414.678185 Z M664.869662,369.872911 C671.646737,369.532506 665.857522,377.335299 666.524994,379.828656 C667.330412,382.82599 668.10468,382.123075 666.600641,385.160196 C665.577183,387.237994 664.371282,389.806505 664.589323,392.193762 C664.113192,390.482895 664.255586,389.492625 663.316675,388.153109 C662.885042,387.538611 661.825985,387.255677 661.251958,386.252145 C660.758028,385.394501 660.442091,383.984251 660.130604,383.082399 C658.688862,378.895857 660.281898,371.924183 664.869662,369.872911 Z M704.677748,315.390405 C706.506624,314.647702 708.838329,315.058841 710.204424,315.434613 C710.515911,316.906755 709.32781,317.596407 709.118668,318.856348 C708.954025,319.837776 709.452405,321.186134 709.167616,322.415129 C708.615838,324.820069 706.560022,328.237383 704.366261,325.496458 C703.529695,324.448718 704.206067,323.400977 703.841182,322.304608 C703.65429,321.738739 702.697578,320.412486 702.64418,320.17376 C702.319344,318.622043 702.39944,314.926216 704.677748,315.390405 Z M725.000074,271.142157 C731.149725,272.428623 735.052217,277.58775 736.275917,282.490469 C736.849944,284.784888 735.830935,286.933419 735.844285,289.108475 C735.853184,291.734458 737.628662,292.552314 738.910211,294.709687 C739.947019,296.455921 740.814733,298.529298 738.247187,299.780397 C736.013378,300.867925 736.373813,298.776865 735.083366,301.301168 C734.140004,303.149082 734.97212,305.262246 731.688153,305.372767 C729.222953,305.456764 729.966073,304.024409 728.190595,303.224236 C726.699905,302.556689 724.479445,303.104873 724.136809,304.886474 C723.794173,306.681338 726.84675,308.281684 725.004524,309.895293 C723.366991,308.538093 722.347982,304.992575 720.688199,304.064197 C717.94711,302.525743 715.504159,305.518655 714.00457,306.95543 C710.747302,310.085389 704.6377,308.754715 700.267977,309.824559 C700.784156,304.859949 707.610179,301.031497 712.202393,301.009392 C714.111366,301.000551 716.451971,302.052712 718.178501,301.265802 C718.819275,300.974026 719.513447,299.523988 720.127522,299.073062 C720.897341,298.502773 721.938598,299.01117 722.561573,298.038584 C723.37589,296.760959 721.698308,295.103142 722.210037,293.268491 C722.64167,291.712353 724.693037,289.364884 726.392868,289.382567 C728.519882,289.404672 728.835819,292.220751 729.458794,288.290618 C729.743582,286.478072 729.672385,283.776935 729.036061,282.061646 C728.190595,279.793752 722.058744,273.166904 725.000074,271.142157 Z M715.570907,252.114836 C716.22503,251.593176 716.72786,251.792114 717.484329,252.057365 C719.820484,252.676283 720.603653,254.002537 722.659469,255.107748 C725.400558,256.584311 730.508951,256.677149 731.123026,260.085621 C731.28322,260.96979 730.891636,263.441043 729.952724,263.962703 C728.386387,264.83803 727.505323,263.038746 726.09918,262.632028 C723.820872,261.977743 722.686168,263.666506 720.309964,263.441043 C720.398961,264.532992 720.247667,265.708937 719.945079,266.690365 C716.260629,265.854825 717.297437,263.445464 718.476639,261.217358 C719.313205,259.639116 719.909481,260.443709 719.090714,257.928248 C718.405442,255.823925 716.696711,253.945066 715.570907,252.114836 Z" id="Map" fill="#C6C6C6"></path>
                <path d="M536.028269,46.155034 L536.028269,135.844966 C326.533749,135.844966 156.844966,304.225479 156.844966,511.759085 C156.844966,719.292692 326.533749,887.673204 536.028269,887.673204 C635.206006,887.673204 718.129602,848.164153 777.304388,776.760097 C826.332417,717.599762 856.929888,638.699612 865.005999,551.085617 L865.129,549.691 L636.957772,554.022538 C631.529511,554.125589 627.029493,549.883566 626.778925,544.493926 L626.769773,544.214142 L626.769773,544.214142 L625.447054,474.536764 C625.34223,469.014912 629.733599,464.453589 635.255452,464.348765 L956.844966,458.243876 L956.844966,503.948235 C956.844966,630.387608 917.928052,747.634452 846.36214,833.990428 C770.256754,925.824022 662.083852,977.363136 536.028269,977.363136 C277.154095,977.363136 67.155034,768.983131 67.155034,511.759085 C67.155034,257.10728 272.975114,50.3275185 528.276867,46.2173884 L536.028269,46.155034 Z M513.215876,453.20354 C514.894232,452.025774 517.01048,451.645226 519.005784,452.161752 L519.005784,452.161752 L574.133461,466.439395 L574.067287,463.336487 C573.99177,459.73322 576.649054,456.67496 580.225547,456.251344 L580.225547,456.251344 L588.282945,469.485074 L588.410707,475.475889 L589.854217,543.193749 L589.981837,549.177928 L582.495459,562.626129 C580.829918,562.474845 579.337414,561.752357 578.20816,560.66185 C576.901317,559.399846 576.079863,557.644702 576.037976,555.711698 L576.037976,555.711698 L575.972452,552.608117 L521.486188,568.375454 C519.513415,568.946548 517.381489,568.623045 515.653884,567.491546 L515.653884,567.491546 L438.855099,517.200519 C438.477416,516.954079 438.128227,516.674064 437.80965,516.366417 C436.474339,515.076922 435.681662,513.301474 435.640821,511.417575 C435.591713,509.083749 436.702597,506.884842 438.606623,505.549351 L438.606623,505.549351 Z M518.720263,466.602714 L465.40381,504.008458 L526.064846,503.28465 C526.955044,500.916823 528.319846,498.733052 530.127459,496.861214 C533.634865,493.229189 538.357938,491.190966 543.426382,491.121451 C548.493527,491.053281 553.300775,492.962041 556.960342,496.496044 C560.619909,500.030047 562.695955,504.768406 562.804018,509.835516 C563.023153,520.2976 554.694363,528.922314 544.23558,529.065053 C539.168435,529.133223 534.35986,527.22448 530.700293,523.690478 C528.808489,521.863583 527.349863,519.710202 526.358397,517.360635 L526.358397,517.360635 L465.81154,518.08422 L520.582382,553.949321 L575.661141,538.010647 L574.445421,481.036193 L518.720263,466.602714 Z M543.727925,505.198655 C542.419843,505.217088 541.201564,505.742089 540.296783,506.679017 C539.391353,507.616617 538.908512,508.851822 538.936391,510.159078 C538.96427,511.466334 539.500207,512.68969 540.445063,513.600829 C541.389948,514.513295 542.630587,515.005555 543.937342,514.98714 C546.63518,514.951155 548.783084,512.724222 548.726842,510.024754 C548.698342,508.719497 548.163083,507.496795 547.218875,506.584985 C546.27399,505.672519 545.03468,505.18024 543.727925,505.198655 Z" id="G" fill="#444444" fill-rule="nonzero"></path>
            </g>
        </g>
    </g>
</svg>